<svg id="flower" xmlns="http://www.w3.org/2000/svg" viewBox="0 0 210.48 243">
  <title>Flower symbol</title>
  <g>
    <path d="M125.76,125.5A121.39,121.39,0,0,0,231,186.26,121.41,121.41,0,0,0,125.76,125.5Z" transform="translate(-20.52 -4)"/>
    <path d="M231,64.74A121.39,121.39,0,0,0,125.76,125.5,121.41,121.41,0,0,0,231,64.74Z" transform="translate(-20.52 -4)"/>
    <path d="M125.76,4a121.37,121.37,0,0,0,0,121.5A121.37,121.37,0,0,0,125.76,4Z" transform="translate(-20.52 -4)"/>
    <path d="M20.52,64.74A121.41,121.41,0,0,0,125.76,125.5,121.39,121.39,0,0,0,20.52,64.74Z" transform="translate(-20.52 -4)"/>
    <path d="M20.52,186.26A121.39,121.39,0,0,0,125.76,125.5,121.41,121.41,0,0,0,20.52,186.26Z" transform="translate(-20.52 -4)"/>
    <path d="M125.76,247a121.37,121.37,0,0,0,0-121.5A121.37,121.37,0,0,0,125.76,247Z" transform="translate(-20.52 -4)"/>
  </g>
</svg>
