<svg id="snowflake" xmlns="http://www.w3.org/2000/svg" viewBox="0 0 201.78 233">
  <title>Snowflake symbol</title>
  <path d="M184,86l2.38-24.53-7.66,7.73L176.6,90.33l-15.42,8.9,4.73-43.51L130,82V63.43L147.2,51l2.86-10.5L130,54.84,125.24,9l-4.77,45.84L100.41,40.51,103.27,51l17.19,12.41v18.3l-35.53-26,4.76,43.74L73.87,90.33,71.71,69.24,64,61.5,66.43,86,24.34,67.25,61.65,94.3l-22.43,10.2,10.53,2.77L69.1,98.6l16.09,9.29-40.74,18,40.05,17.66L69.1,152.4l-19.35-8.68-10.53,2.77,22.43,10.2L24.34,183.75,66.43,165,64,189.5l7.66-7.73,2.16-21.09,15.9-9.18L84.93,196l35.53-26v17.59L103.27,200l-2.86,10.5,20.05-14.32L125.24,242,130,196.16l20.05,14.32L147.2,200,130,187.57V169.7L165.91,196l-4.82-44.27,15.51,9,2.16,21.09,7.66,7.73L184,165l42.08,18.78L188.82,156.7l22.43-10.2-10.53-2.77-19.35,8.68-15.24-8.8,40.26-17.75-41-18.06,15.93-9.2,19.35,8.68,10.53-2.77L188.82,94.3l37.31-27.05Zm-30-9.69-3.14,28.84-10.31,6L142.1,97,130,105.82V93.91Zm-23.81,57.76-4.77-3.49-4.77,3.49.64-5.87-5.41-2.38,5.41-2.38-.64-5.87,4.77,3.49,4.77-3.49-.64,5.87,5.41,2.38-5.41,2.38ZM96.84,76.34l23.62,17.29v11.91L108.75,97l1.57,14.4-10.31-6ZM68.26,125.85l27.24-12,10.31,6-13.74,6.06,13,5.75-10.31,6Zm28.58,49.51,3.24-29.83,10.31-6-1.65,15.15,11.72-8.58v11.91Zm57.17,0-24-17.56V145.89l12.09,8.85-1.62-14.92,10.31,6Zm28.58-49.51-26.76,11.8-10.31-6,13.26-5.84-13.95-6.15,10.31-6Z" transform="translate(-24.34 -9)"/>
</svg>
