<svg id="sun" xmlns="http://www.w3.org/2000/svg" viewBox="0 0 230.04 230.04">
  <title>Sun symbol</title>
  <g>
    <circle cx="114.76" cy="115.02" r="74.53"/>
    <path d="M144.49,43.55l-8.94-15.49L125,9.77l-10.56,18.3-8.86,15.35a83.46,83.46,0,0,1,38.93.14Z" transform="translate(-9.96 -9.77)"/>
    <path d="M196.16,81.33l4.68-17.47,5.47-20.41L185.9,48.92l-17.37,4.65A84,84,0,0,1,196.16,81.33Z" transform="translate(-9.96 -9.77)"/>
    <path d="M221.7,114.22,206,105.15a83.5,83.5,0,0,1,0,39.27l15.71-9.07L240,124.78Z" transform="translate(-9.96 -9.77)"/>
    <path d="M196.16,168.23A84,84,0,0,1,168.53,196l17.37,4.65,20.41,5.47-5.47-20.41Z" transform="translate(-9.96 -9.77)"/>
    <path d="M105.56,206.15l8.86,15.35L125,239.8l10.56-18.3L144.49,206a83.46,83.46,0,0,1-38.93.14Z" transform="translate(-9.96 -9.77)"/>
    <path d="M53.65,168.8l-4.53,16.9-5.47,20.41,20.41-5.47,17-4.56A84,84,0,0,1,53.65,168.8Z" transform="translate(-9.96 -9.77)"/>
    <path d="M28.26,114.22,10,124.78l18.3,10.56,15.12,8.73a83.39,83.39,0,0,1,0-38.59Z" transform="translate(-9.96 -9.77)"/>
    <path d="M53.65,80.77A84,84,0,0,1,81.07,53.48l-17-4.56L43.65,43.45l5.47,20.41Z" transform="translate(-9.96 -9.77)"/>
  </g>
</svg>
