<svg xmlns="http://www.w3.org/2000/svg">

  <symbol id="sun" viewBox="0 0 230.04 230.04">
    <title>Sun symbol</title>
    <g>
      <circle cx="114.76" cy="115.02" r="74.53"/>
      <path d="M144.49,43.55l-8.94-15.49L125,9.77l-10.56,18.3-8.86,15.35a83.46,83.46,0,0,1,38.93.14Z" transform="translate(-9.96 -9.77)"/>
      <path d="M196.16,81.33l4.68-17.47,5.47-20.41L185.9,48.92l-17.37,4.65A84,84,0,0,1,196.16,81.33Z" transform="translate(-9.96 -9.77)"/>
      <path d="M221.7,114.22,206,105.15a83.5,83.5,0,0,1,0,39.27l15.71-9.07L240,124.78Z" transform="translate(-9.96 -9.77)"/>
      <path d="M196.16,168.23A84,84,0,0,1,168.53,196l17.37,4.65,20.41,5.47-5.47-20.41Z" transform="translate(-9.96 -9.77)"/>
      <path d="M105.56,206.15l8.86,15.35L125,239.8l10.56-18.3L144.49,206a83.46,83.46,0,0,1-38.93.14Z" transform="translate(-9.96 -9.77)"/>
      <path d="M53.65,168.8l-4.53,16.9-5.47,20.41,20.41-5.47,17-4.56A84,84,0,0,1,53.65,168.8Z" transform="translate(-9.96 -9.77)"/>
      <path d="M28.26,114.22,10,124.78l18.3,10.56,15.12,8.73a83.39,83.39,0,0,1,0-38.59Z" transform="translate(-9.96 -9.77)"/>
      <path d="M53.65,80.77A84,84,0,0,1,81.07,53.48l-17-4.56L43.65,43.45l5.47,20.41Z" transform="translate(-9.96 -9.77)"/>
    </g>
  </symbol>

  <symbol id="moon" viewBox="0 0 193.24 240">
    <title>Moon symbol</title>
    <path d="M197.33,223.92c-55.65,0-100.76-44.09-100.76-98.47S141.68,27,197.33,27A103.17,103.17,0,0,1,222,30a120,120,0,1,0-1.65,191.33A103.21,103.21,0,0,1,197.33,223.92Z" transform="translate(-28.78 -5)"/>
  </symbol>

  <symbol id="cloud" viewBox="0 0 234 124.8">
    <title>Cloud symbol</title>
    <path d="M211.8,116.6A62.4,62.4,0,0,0,95,86.09a46.76,46.76,0,0,0-52.14,30.64c-.87-.07-1.74-.13-2.63-.13a31.2,31.2,0,0,0,0,62.4H211.8a31.2,31.2,0,0,0,0-62.4Z" transform="translate(-9 -54.2)"/>
  </symbol>

  <symbol id="raindrop" viewBox="0 0 136 220.72">
    <title>Raindrop symbol</title>
    <path d="M188.49,133,160.66,76.87,130,15,99.34,76.87,71.51,133a68,68,0,1,0,117,0Z" transform="translate(-62 -15)"/>
  </symbol>

  <symbol id="snowflake" viewBox="0 0 201.78 233">
    <title>Snowflake symbol</title>
    <path d="M184,86l2.38-24.53-7.66,7.73L176.6,90.33l-15.42,8.9,4.73-43.51L130,82V63.43L147.2,51l2.86-10.5L130,54.84,125.24,9l-4.77,45.84L100.41,40.51,103.27,51l17.19,12.41v18.3l-35.53-26,4.76,43.74L73.87,90.33,71.71,69.24,64,61.5,66.43,86,24.34,67.25,61.65,94.3l-22.43,10.2,10.53,2.77L69.1,98.6l16.09,9.29-40.74,18,40.05,17.66L69.1,152.4l-19.35-8.68-10.53,2.77,22.43,10.2L24.34,183.75,66.43,165,64,189.5l7.66-7.73,2.16-21.09,15.9-9.18L84.93,196l35.53-26v17.59L103.27,200l-2.86,10.5,20.05-14.32L125.24,242,130,196.16l20.05,14.32L147.2,200,130,187.57V169.7L165.91,196l-4.82-44.27,15.51,9,2.16,21.09,7.66,7.73L184,165l42.08,18.78L188.82,156.7l22.43-10.2-10.53-2.77-19.35,8.68-15.24-8.8,40.26-17.75-41-18.06,15.93-9.2,19.35,8.68,10.53-2.77L188.82,94.3l37.31-27.05Zm-30-9.69-3.14,28.84-10.31,6L142.1,97,130,105.82V93.91Zm-23.81,57.76-4.77-3.49-4.77,3.49.64-5.87-5.41-2.38,5.41-2.38-.64-5.87,4.77,3.49,4.77-3.49-.64,5.87,5.41,2.38-5.41,2.38ZM96.84,76.34l23.62,17.29v11.91L108.75,97l1.57,14.4-10.31-6ZM68.26,125.85l27.24-12,10.31,6-13.74,6.06,13,5.75-10.31,6Zm28.58,49.51,3.24-29.83,10.31-6-1.65,15.15,11.72-8.58v11.91Zm57.17,0-24-17.56V145.89l12.09,8.85-1.62-14.92,10.31,6Zm28.58-49.51-26.76,11.8-10.31-6,13.26-5.84-13.95-6.15,10.31-6Z" transform="translate(-24.34 -9)"/>
  </symbol>

  <symbol id="flower" viewBox="0 0 210.48 243">
    <title>Flower symbol</title>
    <g>
      <path d="M125.76,125.5A121.39,121.39,0,0,0,231,186.26,121.41,121.41,0,0,0,125.76,125.5Z" transform="translate(-20.52 -4)"/>
      <path d="M231,64.74A121.39,121.39,0,0,0,125.76,125.5,121.41,121.41,0,0,0,231,64.74Z" transform="translate(-20.52 -4)"/>
      <path d="M125.76,4a121.37,121.37,0,0,0,0,121.5A121.37,121.37,0,0,0,125.76,4Z" transform="translate(-20.52 -4)"/>
      <path d="M20.52,64.74A121.41,121.41,0,0,0,125.76,125.5,121.39,121.39,0,0,0,20.52,64.74Z" transform="translate(-20.52 -4)"/>
      <path d="M20.52,186.26A121.39,121.39,0,0,0,125.76,125.5,121.41,121.41,0,0,0,20.52,186.26Z" transform="translate(-20.52 -4)"/>
      <path d="M125.76,247a121.37,121.37,0,0,0,0-121.5A121.37,121.37,0,0,0,125.76,247Z" transform="translate(-20.52 -4)"/>
    </g>
  </symbol>

  <symbol id="tree" viewBox="0 0 159.57 235.65">
    <title>Tree symbol</title>
    <polygon points="159.57 206.62 130.84 156.86 153.82 156.86 119.11 96.72 136.57 96.72 108.65 48.36 80.73 0 52.8 48.36 24.88 96.72 40.94 96.72 6.22 156.86 28.73 156.86 0 206.62 68.64 206.62 68.64 235.65 93.52 235.65 93.52 206.62 159.57 206.62"/>
  </symbol>
</svg>